<svg xmlns="http://www.w3.org/2000/svg" width="11.999" height="30" viewBox="0 0 11.999 30"><g transform="translate(-608.98 -388.999)"><path d="M2.128,0H9.868A2.132,2.132,0,0,1,12,2.136V27.767A2.132,2.132,0,0,1,9.868,29.9H2.128A2.132,2.132,0,0,1,0,27.767V2.136A2.132,2.132,0,0,1,2.128,0Z" transform="translate(608.982 388.999)"/><path d="M7.161,30V.1h.483V2.722a2.183,2.183,0,0,1,.6-.761,3.066,3.066,0,0,1,.969-.582A3.343,3.343,0,0,1,10.4,1.164a3.28,3.28,0,0,1,1.537.371c.079.042.057.026.059.363a3.479,3.479,0,0,0-2.492-.035,3.067,3.067,0,0,0-.968.582,2.709,2.709,0,0,0-.653.864,2.827,2.827,0,0,0-.24.611V6.313a2.186,2.186,0,0,1,.6-.76,3.078,3.078,0,0,1,.969-.583A3.346,3.346,0,0,1,10.4,4.757a3.291,3.291,0,0,1,1.537.37c.079.042.057.026.059.364a3.477,3.477,0,0,0-2.492-.035,3.089,3.089,0,0,0-.968.582,2.716,2.716,0,0,0-.653.864,2.843,2.843,0,0,0-.24.61V9.906a2.19,2.19,0,0,1,.6-.761,3.082,3.082,0,0,1,.969-.582A3.346,3.346,0,0,1,10.4,8.349a3.29,3.29,0,0,1,1.537.37c.079.043.057.027.059.364a3.483,3.483,0,0,0-2.492-.035,3.084,3.084,0,0,0-.968.582,2.717,2.717,0,0,0-.653.864,2.831,2.831,0,0,0-.24.61V13.5a2.186,2.186,0,0,1,.6-.76,3.07,3.07,0,0,1,.969-.583,3.357,3.357,0,0,1,1.186-.214,3.285,3.285,0,0,1,1.537.371c.079.042.057.026.059.364a3.477,3.477,0,0,0-2.492-.035,3.068,3.068,0,0,0-.968.583,2.7,2.7,0,0,0-.653.863,2.855,2.855,0,0,0-.24.611V17.09a2.19,2.19,0,0,1,.6-.761,3.086,3.086,0,0,1,.969-.582,3.344,3.344,0,0,1,1.186-.213,3.291,3.291,0,0,1,1.537.37c.079.042.057.026.059.363a3.477,3.477,0,0,0-2.492-.035,3.082,3.082,0,0,0-.968.582,2.717,2.717,0,0,0-.653.864,2.834,2.834,0,0,0-.24.61v2.393a2.194,2.194,0,0,1,.6-.76,3.085,3.085,0,0,1,.969-.583,3.355,3.355,0,0,1,1.186-.213,3.291,3.291,0,0,1,1.537.37c.079.043.057.027.059.364a3.481,3.481,0,0,0-2.492-.036,3.079,3.079,0,0,0-.968.583,2.708,2.708,0,0,0-.653.863,2.843,2.843,0,0,0-.24.611v2.394a2.188,2.188,0,0,1,.6-.761,3.07,3.07,0,0,1,.969-.582,3.345,3.345,0,0,1,1.186-.214,3.284,3.284,0,0,1,1.537.371c.079.042.057.026.059.363a3.477,3.477,0,0,0-2.492-.035A3.072,3.072,0,0,0,8.537,24a2.711,2.711,0,0,0-.653.864,2.847,2.847,0,0,0-.24.611v2.393a2.19,2.19,0,0,1,.6-.76,3.087,3.087,0,0,1,.969-.583A3.357,3.357,0,0,1,10.4,26.31a3.289,3.289,0,0,1,1.537.37c.079.043.057.026.059.363a3.482,3.482,0,0,0-2.492-.035,3.082,3.082,0,0,0-.968.583,2.71,2.71,0,0,0-.653.864,2.835,2.835,0,0,0-.24.61V30Zm.483-1.459c0-.03,0,.035,0-.673Zm0-3.592c0-.03,0,.035,0-.673Zm0-3.592c0-.03,0,.035,0-.673Zm0-3.592c0-.03,0,.035,0-.673Zm0-3.592c0-.03,0,.035,0-.673Zm0-3.592c0-.03,0,.035,0-.673Zm0-3.592c0-.03,0,.035,0-.673Zm0-3.592c0-.03,0,.035,0-.673ZM4.355,29.9v-.84a2.844,2.844,0,0,0-.239-.608,2.707,2.707,0,0,0-.653-.864,3.085,3.085,0,0,0-.968-.583A3.346,3.346,0,0,0,1.308,26.8,3.335,3.335,0,0,0,0,27.044c0-.337-.019-.322.06-.364A3.285,3.285,0,0,1,1.6,26.31a3.347,3.347,0,0,1,1.186.214,3.071,3.071,0,0,1,.969.582,2.191,2.191,0,0,1,.6.76v-2.4a2.833,2.833,0,0,0-.239-.607A2.7,2.7,0,0,0,3.463,24a3.085,3.085,0,0,0-.968-.583A3.348,3.348,0,0,0,1.308,23.2,3.343,3.343,0,0,0,0,23.452c0-.337-.019-.321.06-.364a3.285,3.285,0,0,1,1.536-.37,3.345,3.345,0,0,1,1.186.214,3.071,3.071,0,0,1,.969.582,2.189,2.189,0,0,1,.6.76v-2.4a2.847,2.847,0,0,0-.239-.607,2.708,2.708,0,0,0-.653-.864,3.092,3.092,0,0,0-.968-.583,3.348,3.348,0,0,0-1.186-.213A3.334,3.334,0,0,0,0,19.86c0-.337-.019-.321.06-.364a3.288,3.288,0,0,1,1.536-.37,3.355,3.355,0,0,1,1.186.213,3.086,3.086,0,0,1,.969.582,2.192,2.192,0,0,1,.6.76V18.287a2.822,2.822,0,0,0-.239-.608,2.7,2.7,0,0,0-.653-.864,3.087,3.087,0,0,0-.968-.583,3.344,3.344,0,0,0-1.186-.213A3.342,3.342,0,0,0,0,16.268c0-.337-.019-.321.06-.364a3.287,3.287,0,0,1,1.536-.37,3.357,3.357,0,0,1,1.186.214,3.087,3.087,0,0,1,.969.582,2.187,2.187,0,0,1,.6.76v-2.4a2.836,2.836,0,0,0-.239-.608,2.711,2.711,0,0,0-.653-.864,3.1,3.1,0,0,0-.968-.582,3.346,3.346,0,0,0-1.186-.214A3.351,3.351,0,0,0,0,12.675c0-.337-.019-.321.06-.364A3.287,3.287,0,0,1,1.6,11.941a3.357,3.357,0,0,1,1.186.214,3.081,3.081,0,0,1,.969.583,2.182,2.182,0,0,1,.6.76V11.1a2.826,2.826,0,0,0-.239-.608,2.707,2.707,0,0,0-.653-.864,3.089,3.089,0,0,0-.968-.583,3.356,3.356,0,0,0-1.186-.213A3.335,3.335,0,0,0,0,9.084c0-.338-.019-.322.06-.364A3.277,3.277,0,0,1,1.6,8.35a3.347,3.347,0,0,1,1.186.214,3.067,3.067,0,0,1,.969.582,2.178,2.178,0,0,1,.6.76V7.51A2.832,2.832,0,0,0,4.115,6.9a2.7,2.7,0,0,0-.653-.864,3.087,3.087,0,0,0-.968-.583,3.358,3.358,0,0,0-1.186-.213A3.343,3.343,0,0,0,0,5.491c0-.337-.019-.321.06-.363A3.28,3.28,0,0,1,1.6,4.757a3.357,3.357,0,0,1,1.186.214,3.074,3.074,0,0,1,.969.583,2.185,2.185,0,0,1,.6.759V3.921a2.794,2.794,0,0,0-.239-.61,2.708,2.708,0,0,0-.653-.864,3.083,3.083,0,0,0-.969-.583A3.359,3.359,0,0,0,1.308,1.65,3.335,3.335,0,0,0,0,1.9c0-.338-.02-.322.06-.364A3.274,3.274,0,0,1,1.6,1.165a3.345,3.345,0,0,1,1.186.214,3.064,3.064,0,0,1,.968.582,2.178,2.178,0,0,1,.6.76c0,.687,0,.646,0,.67V0h.484V29.9Zm0-1.37v-.578C4.352,28.508,4.354,28.516,4.355,28.533Zm0-3.592v-.578C4.352,24.916,4.354,24.924,4.355,24.941Zm0-3.592V20.77C4.352,21.324,4.354,21.332,4.355,21.349Zm0-3.592v-.578C4.352,17.732,4.354,17.74,4.355,17.757Zm0-3.592v-.578C4.352,14.14,4.354,14.148,4.355,14.164Zm0-3.592V9.994C4.352,10.548,4.354,10.555,4.355,10.572Zm0-3.592V6.4C4.352,6.956,4.354,6.963,4.355,6.98Z" transform="translate(608.98 389)" fill="rgba(255,255,255,0.5)"/></g></svg>