<svg xmlns="http://www.w3.org/2000/svg" width="97.001" height="39.004" viewBox="0 0 97.001 39.004"><g transform="translate(97.001) rotate(90)" opacity="0.5"><path d="M6.88,0H31.906A6.893,6.893,0,0,1,38.8,6.906V89.778a6.893,6.893,0,0,1-6.893,6.9H6.88A6.893,6.893,0,0,1,0,89.778V6.906A6.893,6.893,0,0,1,6.88,0Z" transform="translate(0.014)"/><path d="M23.279,97V.323h1.57V8.8A7.064,7.064,0,0,1,26.8,6.341a9.975,9.975,0,0,1,3.149-1.882,10.915,10.915,0,0,1,3.858-.7,10.7,10.7,0,0,1,5,1.2c.257.136.185.084.192,1.174a11.362,11.362,0,0,0-8.1-.113,9.978,9.978,0,0,0-3.146,1.882A8.764,8.764,0,0,0,25.625,10.7a9.113,9.113,0,0,0-.78,1.976v7.737a7.074,7.074,0,0,1,1.95-2.457,10.014,10.014,0,0,1,3.149-1.885,10.925,10.925,0,0,1,3.861-.689,10.741,10.741,0,0,1,5,1.2c.257.136.185.084.192,1.177a11.355,11.355,0,0,0-8.1-.113,10.05,10.05,0,0,0-3.146,1.882,8.786,8.786,0,0,0-2.122,2.794,9.165,9.165,0,0,0-.78,1.972v7.741a7.087,7.087,0,0,1,1.95-2.461,10.027,10.027,0,0,1,3.149-1.882A10.925,10.925,0,0,1,33.806,27a10.738,10.738,0,0,1,5,1.2c.257.139.185.087.192,1.177a11.375,11.375,0,0,0-8.1-.113,10.034,10.034,0,0,0-3.146,1.882,8.789,8.789,0,0,0-2.122,2.794,9.126,9.126,0,0,0-.78,1.972V43.65a7.074,7.074,0,0,1,1.95-2.457,9.988,9.988,0,0,1,3.149-1.885,10.961,10.961,0,0,1,3.855-.692,10.721,10.721,0,0,1,5,1.2c.257.136.185.084.192,1.177a11.355,11.355,0,0,0-8.1-.113,9.981,9.981,0,0,0-3.146,1.885,8.735,8.735,0,0,0-2.122,2.79,9.2,9.2,0,0,0-.78,1.976v7.728a7.087,7.087,0,0,1,1.95-2.461,10.04,10.04,0,0,1,3.149-1.882,10.918,10.918,0,0,1,3.855-.689,10.741,10.741,0,0,1,5,1.2c.257.136.185.084.192,1.174a11.355,11.355,0,0,0-8.1-.113,10.027,10.027,0,0,0-3.146,1.882,8.789,8.789,0,0,0-2.122,2.794,9.135,9.135,0,0,0-.78,1.972v7.737a7.1,7.1,0,0,1,1.95-2.457,10.037,10.037,0,0,1,3.149-1.885,10.955,10.955,0,0,1,3.855-.689,10.741,10.741,0,0,1,5,1.2c.257.139.185.087.192,1.177a11.368,11.368,0,0,0-8.1-.116,10.017,10.017,0,0,0-3.146,1.885,8.76,8.76,0,0,0-2.122,2.79,9.165,9.165,0,0,0-.78,1.976v7.741a7.08,7.08,0,0,1,1.95-2.461,9.988,9.988,0,0,1,3.149-1.882,10.922,10.922,0,0,1,3.855-.692,10.718,10.718,0,0,1,5,1.2c.257.136.185.084.192,1.174a11.355,11.355,0,0,0-8.1-.113A9.994,9.994,0,0,0,27.751,77.6a8.77,8.77,0,0,0-2.122,2.794,9.177,9.177,0,0,0-.78,1.976v7.737a7.087,7.087,0,0,1,1.95-2.457,10.043,10.043,0,0,1,3.149-1.885,10.961,10.961,0,0,1,3.858-.7,10.734,10.734,0,0,1,5,1.2c.257.139.185.084.192,1.174a11.371,11.371,0,0,0-8.1-.113,10.027,10.027,0,0,0-3.146,1.885A8.767,8.767,0,0,0,25.625,92a9.138,9.138,0,0,0-.78,1.972V97Zm1.57-4.717v0Zm0-11.614v0Zm0-11.614v0Zm0-11.614v0Zm0-11.614v0Zm0-11.614v0Zm0-11.614v0Zm0-11.614v0ZM14.159,96.677V93.961a9.168,9.168,0,0,0-.777-1.966A8.757,8.757,0,0,0,11.26,89.2a10.036,10.036,0,0,0-3.146-1.885,10.925,10.925,0,0,0-3.858-.663,10.889,10.889,0,0,0-4.251.789c0-1.09-.062-1.041.2-1.177a10.721,10.721,0,0,1,5.005-1.2,10.928,10.928,0,0,1,3.855.692,9.991,9.991,0,0,1,3.149,1.882,7.09,7.09,0,0,1,1.95,2.457V82.34a9.132,9.132,0,0,0-.777-1.963A8.735,8.735,0,0,0,11.26,77.6a10.036,10.036,0,0,0-3.146-1.885,10.931,10.931,0,0,0-3.858-.7A10.914,10.914,0,0,0,0,75.828c0-1.09-.062-1.038.2-1.177a10.721,10.721,0,0,1,4.992-1.2,10.921,10.921,0,0,1,3.855.692A9.991,9.991,0,0,1,12.2,76.029a7.084,7.084,0,0,1,1.95,2.457v-7.76a9.177,9.177,0,0,0-.777-1.963,8.76,8.76,0,0,0-2.122-2.794A10.059,10.059,0,0,0,8.1,64.085,10.931,10.931,0,0,0,4.246,63.4a10.885,10.885,0,0,0-4.241.818c0-1.09-.062-1.038.2-1.177a10.731,10.731,0,0,1,4.992-1.2,10.954,10.954,0,0,1,3.855.689A10.04,10.04,0,0,1,12.2,64.411a7.093,7.093,0,0,1,1.95,2.457V59.128a9.1,9.1,0,0,0-.777-1.966,8.734,8.734,0,0,0-2.122-2.794A10.043,10.043,0,0,0,8.1,52.483a10.918,10.918,0,0,0-3.855-.689A10.911,10.911,0,0,0,.005,52.6c0-1.09-.062-1.038.2-1.177a10.728,10.728,0,0,1,4.992-1.2,10.961,10.961,0,0,1,3.855.692A10.043,10.043,0,0,1,12.2,52.8a7.077,7.077,0,0,1,1.95,2.457V47.5a9.142,9.142,0,0,0-.777-1.966,8.77,8.77,0,0,0-2.122-2.794A10.086,10.086,0,0,0,8.1,40.856a10.925,10.925,0,0,0-3.855-.692,10.94,10.94,0,0,0-4.241.818c0-1.09-.062-1.038.2-1.177a10.728,10.728,0,0,1,5.005-1.2A10.961,10.961,0,0,1,9.06,39.3a10.024,10.024,0,0,1,3.149,1.885,7.061,7.061,0,0,1,1.95,2.457V35.89a9.109,9.109,0,0,0-.777-1.966,8.757,8.757,0,0,0-2.122-2.794,10.05,10.05,0,0,0-3.146-1.885,10.958,10.958,0,0,0-3.855-.689,10.888,10.888,0,0,0-4.254.815c0-1.093-.062-1.041.2-1.177A10.7,10.7,0,0,1,5.205,27a10.928,10.928,0,0,1,3.855.692,9.978,9.978,0,0,1,3.149,1.882,7.048,7.048,0,0,1,1.95,2.457V24.282a9.129,9.129,0,0,0-.78-1.972,8.734,8.734,0,0,0-2.122-2.794,10.043,10.043,0,0,0-3.146-1.885,10.964,10.964,0,0,0-3.855-.689,10.914,10.914,0,0,0-4.251.812c0-1.09-.062-1.038.2-1.174a10.7,10.7,0,0,1,5.005-1.2,10.961,10.961,0,0,1,3.855.692,10,10,0,0,1,3.149,1.885,7.071,7.071,0,0,1,1.95,2.454V12.678a9.006,9.006,0,0,0-.777-1.972A8.76,8.76,0,0,0,11.26,7.912,10.03,10.03,0,0,0,8.111,6.027a10.967,10.967,0,0,0-3.855-.692,10.888,10.888,0,0,0-4.251.808C0,5.05-.06,5.1.2,4.966a10.685,10.685,0,0,1,5.005-1.2,10.922,10.922,0,0,1,3.855.692,9.968,9.968,0,0,1,3.146,1.882A7.048,7.048,0,0,1,14.156,8.8V0h1.573V96.677Zm0-4.43V90.378c-.01,1.8,0,1.824,0,1.879Zm0-11.614V78.764c-.01,1.8,0,1.824,0,1.879Zm0-11.614V67.156c-.01,1.791,0,1.817,0,1.872Zm0-11.614V55.536c-.01,1.8,0,1.824,0,1.879Zm0-11.614V43.922c-.01,1.8,0,1.824,0,1.875Zm0-11.614V32.314c-.01,1.791,0,1.814,0,1.869Zm0-11.614V20.693c-.01,1.8,0,1.82,0,1.875Z" transform="translate(0.002 0.001)" fill="rgba(255,255,255,0.5)"/></g></svg>