<svg xmlns="http://www.w3.org/2000/svg" width="91.004" height="30.001" viewBox="0 0 91.004 30.001"><g transform="translate(-477 -132)"><path d="M0,0H83V4H0Z" transform="translate(481 145)" fill="#adadad"/><g transform="translate(477 132)"><path d="M2.128,0h7.74A2.132,2.132,0,0,1,12,2.136V27.767A2.132,2.132,0,0,1,9.868,29.9H2.128A2.132,2.132,0,0,1,0,27.767V2.136A2.132,2.132,0,0,1,2.128,0Z" transform="translate(0.004)"/><path d="M7.161,30V.1h.483V2.722a2.183,2.183,0,0,1,.6-.761,3.066,3.066,0,0,1,.969-.582A3.343,3.343,0,0,1,10.4,1.164a3.28,3.28,0,0,1,1.537.371c.079.042.057.026.059.363A3.479,3.479,0,0,0,9.5,1.863a3.067,3.067,0,0,0-.968.582,2.709,2.709,0,0,0-.653.864,2.827,2.827,0,0,0-.24.611V6.313a2.186,2.186,0,0,1,.6-.76,3.078,3.078,0,0,1,.969-.583A3.346,3.346,0,0,1,10.4,4.757a3.291,3.291,0,0,1,1.537.37c.079.042.057.026.059.364A3.477,3.477,0,0,0,9.5,5.456a3.089,3.089,0,0,0-.968.582,2.716,2.716,0,0,0-.653.864,2.843,2.843,0,0,0-.24.61V9.906a2.19,2.19,0,0,1,.6-.761,3.082,3.082,0,0,1,.969-.582A3.346,3.346,0,0,1,10.4,8.349a3.29,3.29,0,0,1,1.537.37c.079.043.057.027.059.364A3.483,3.483,0,0,0,9.5,9.048a3.084,3.084,0,0,0-.968.582,2.717,2.717,0,0,0-.653.864,2.831,2.831,0,0,0-.24.61v2.4a2.186,2.186,0,0,1,.6-.76,3.07,3.07,0,0,1,.969-.583,3.357,3.357,0,0,1,1.186-.214,3.285,3.285,0,0,1,1.537.371c.079.042.057.026.059.364A3.477,3.477,0,0,0,9.5,12.643a3.068,3.068,0,0,0-.968.583,2.7,2.7,0,0,0-.653.863,2.855,2.855,0,0,0-.24.611v2.39a2.19,2.19,0,0,1,.6-.761,3.086,3.086,0,0,1,.969-.582,3.344,3.344,0,0,1,1.186-.213,3.291,3.291,0,0,1,1.537.37c.079.042.057.026.059.363A3.477,3.477,0,0,0,9.5,16.232a3.082,3.082,0,0,0-.968.582,2.717,2.717,0,0,0-.653.864,2.834,2.834,0,0,0-.24.61v2.393a2.194,2.194,0,0,1,.6-.76,3.085,3.085,0,0,1,.969-.583,3.355,3.355,0,0,1,1.186-.213,3.291,3.291,0,0,1,1.537.37c.079.043.057.027.059.364A3.481,3.481,0,0,0,9.5,19.823a3.079,3.079,0,0,0-.968.583,2.708,2.708,0,0,0-.653.863,2.843,2.843,0,0,0-.24.611v2.394a2.188,2.188,0,0,1,.6-.761,3.07,3.07,0,0,1,.969-.582,3.345,3.345,0,0,1,1.186-.214,3.284,3.284,0,0,1,1.537.371c.079.042.057.026.059.363A3.477,3.477,0,0,0,9.5,23.416,3.072,3.072,0,0,0,8.537,24a2.711,2.711,0,0,0-.653.864,2.847,2.847,0,0,0-.24.611v2.393a2.19,2.19,0,0,1,.6-.76,3.087,3.087,0,0,1,.969-.583A3.357,3.357,0,0,1,10.4,26.31a3.289,3.289,0,0,1,1.537.37c.079.043.057.026.059.363A3.482,3.482,0,0,0,9.5,27.008a3.082,3.082,0,0,0-.968.583,2.71,2.71,0,0,0-.653.864,2.835,2.835,0,0,0-.24.61V30Zm.483-1.459v0Zm0-3.592v0Zm0-3.592v0Zm0-3.592v0Zm0-3.592v0Zm0-3.592v0Zm0-3.592v0Zm0-3.592v0ZM4.355,29.9v-.84a2.844,2.844,0,0,0-.239-.608,2.707,2.707,0,0,0-.653-.864A3.085,3.085,0,0,0,2.5,27a3.346,3.346,0,0,0-1.187-.2A3.335,3.335,0,0,0,0,27.044c0-.337-.019-.322.06-.364a3.285,3.285,0,0,1,1.54-.37,3.347,3.347,0,0,1,1.186.214,3.071,3.071,0,0,1,.969.582,2.191,2.191,0,0,1,.6.76v-2.4a2.833,2.833,0,0,0-.239-.607A2.7,2.7,0,0,0,3.463,24a3.085,3.085,0,0,0-.968-.583A3.348,3.348,0,0,0,1.308,23.2,3.343,3.343,0,0,0,0,23.452c0-.337-.019-.321.06-.364a3.285,3.285,0,0,1,1.536-.37,3.345,3.345,0,0,1,1.186.214,3.071,3.071,0,0,1,.969.582,2.189,2.189,0,0,1,.6.76v-2.4a2.847,2.847,0,0,0-.239-.607,2.708,2.708,0,0,0-.653-.864,3.092,3.092,0,0,0-.968-.583,3.348,3.348,0,0,0-1.186-.213A3.334,3.334,0,0,0,0,19.86c0-.337-.019-.321.06-.364a3.288,3.288,0,0,1,1.536-.37,3.355,3.355,0,0,1,1.186.213,3.086,3.086,0,0,1,.969.582,2.192,2.192,0,0,1,.6.76V18.287a2.822,2.822,0,0,0-.239-.608,2.7,2.7,0,0,0-.653-.864,3.087,3.087,0,0,0-.968-.583,3.344,3.344,0,0,0-1.186-.213A3.342,3.342,0,0,0,0,16.268c0-.337-.019-.321.06-.364a3.287,3.287,0,0,1,1.536-.37,3.357,3.357,0,0,1,1.186.214,3.087,3.087,0,0,1,.969.582,2.187,2.187,0,0,1,.6.76v-2.4a2.836,2.836,0,0,0-.239-.608,2.711,2.711,0,0,0-.653-.864,3.1,3.1,0,0,0-.968-.582,3.346,3.346,0,0,0-1.186-.214A3.351,3.351,0,0,0,0,12.675c0-.337-.019-.321.06-.364a3.287,3.287,0,0,1,1.54-.37,3.357,3.357,0,0,1,1.186.214,3.081,3.081,0,0,1,.969.583,2.182,2.182,0,0,1,.6.76V11.1a2.826,2.826,0,0,0-.239-.608,2.707,2.707,0,0,0-.653-.864A3.089,3.089,0,0,0,2.5,9.045a3.356,3.356,0,0,0-1.186-.213A3.335,3.335,0,0,0,0,9.084c0-.338-.019-.322.06-.364A3.277,3.277,0,0,1,1.6,8.35a3.347,3.347,0,0,1,1.186.214,3.067,3.067,0,0,1,.969.582,2.178,2.178,0,0,1,.6.76V7.51a2.832,2.832,0,0,0-.24-.61,2.7,2.7,0,0,0-.653-.864,3.087,3.087,0,0,0-.968-.583A3.358,3.358,0,0,0,1.308,5.24,3.343,3.343,0,0,0,0,5.491c0-.337-.019-.321.06-.363A3.28,3.28,0,0,1,1.6,4.757a3.357,3.357,0,0,1,1.186.214,3.074,3.074,0,0,1,.969.583,2.185,2.185,0,0,1,.6.759V3.921a2.794,2.794,0,0,0-.239-.61,2.708,2.708,0,0,0-.653-.864,3.083,3.083,0,0,0-.969-.583A3.359,3.359,0,0,0,1.308,1.65,3.335,3.335,0,0,0,0,1.9c0-.338-.02-.322.06-.364A3.274,3.274,0,0,1,1.6,1.165a3.345,3.345,0,0,1,1.186.214,3.064,3.064,0,0,1,.968.582,2.178,2.178,0,0,1,.6.76V0h.484V29.9Zm0-1.37v-.578c0,.556,0,.564,0,.581Zm0-3.592V24.36c0,.556,0,.564,0,.581Zm0-3.592V20.77c0,.554,0,.562,0,.579Zm0-3.592v-.578c0,.556,0,.564,0,.581Zm0-3.592v-.578c0,.556,0,.564,0,.58Zm0-3.592V9.994c0,.554,0,.561,0,.578Zm0-3.592V6.4c0,.556,0,.563,0,.58Z" transform="translate(0.002 0.001)" fill="rgba(255,255,255,0.5)"/></g><g transform="translate(556 132)"><path d="M2.128,0h7.74A2.132,2.132,0,0,1,12,2.136V27.767A2.132,2.132,0,0,1,9.868,29.9H2.128A2.132,2.132,0,0,1,0,27.767V2.136A2.132,2.132,0,0,1,2.128,0Z" transform="translate(0.004)"/><path d="M7.161,30V.1h.483V2.722a2.183,2.183,0,0,1,.6-.761,3.066,3.066,0,0,1,.969-.582A3.343,3.343,0,0,1,10.4,1.164a3.28,3.28,0,0,1,1.537.371c.079.042.057.026.059.363A3.479,3.479,0,0,0,9.5,1.863a3.067,3.067,0,0,0-.968.582,2.709,2.709,0,0,0-.653.864,2.827,2.827,0,0,0-.24.611V6.313a2.186,2.186,0,0,1,.6-.76,3.078,3.078,0,0,1,.969-.583A3.346,3.346,0,0,1,10.4,4.757a3.291,3.291,0,0,1,1.537.37c.079.042.057.026.059.364A3.477,3.477,0,0,0,9.5,5.456a3.089,3.089,0,0,0-.968.582,2.716,2.716,0,0,0-.653.864,2.843,2.843,0,0,0-.24.61V9.906a2.19,2.19,0,0,1,.6-.761,3.082,3.082,0,0,1,.969-.582A3.346,3.346,0,0,1,10.4,8.349a3.29,3.29,0,0,1,1.537.37c.079.043.057.027.059.364A3.483,3.483,0,0,0,9.5,9.048a3.084,3.084,0,0,0-.968.582,2.717,2.717,0,0,0-.653.864,2.831,2.831,0,0,0-.24.61v2.4a2.186,2.186,0,0,1,.6-.76,3.07,3.07,0,0,1,.969-.583,3.357,3.357,0,0,1,1.186-.214,3.285,3.285,0,0,1,1.537.371c.079.042.057.026.059.364A3.477,3.477,0,0,0,9.5,12.643a3.068,3.068,0,0,0-.968.583,2.7,2.7,0,0,0-.653.863,2.855,2.855,0,0,0-.24.611v2.39a2.19,2.19,0,0,1,.6-.761,3.086,3.086,0,0,1,.969-.582,3.344,3.344,0,0,1,1.186-.213,3.291,3.291,0,0,1,1.537.37c.079.042.057.026.059.363A3.477,3.477,0,0,0,9.5,16.232a3.082,3.082,0,0,0-.968.582,2.717,2.717,0,0,0-.653.864,2.834,2.834,0,0,0-.24.61v2.393a2.194,2.194,0,0,1,.6-.76,3.085,3.085,0,0,1,.969-.583,3.355,3.355,0,0,1,1.186-.213,3.291,3.291,0,0,1,1.537.37c.079.043.057.027.059.364A3.481,3.481,0,0,0,9.5,19.823a3.079,3.079,0,0,0-.968.583,2.708,2.708,0,0,0-.653.863,2.843,2.843,0,0,0-.24.611v2.394a2.188,2.188,0,0,1,.6-.761,3.07,3.07,0,0,1,.969-.582,3.345,3.345,0,0,1,1.186-.214,3.284,3.284,0,0,1,1.537.371c.079.042.057.026.059.363A3.477,3.477,0,0,0,9.5,23.416,3.072,3.072,0,0,0,8.537,24a2.711,2.711,0,0,0-.653.864,2.847,2.847,0,0,0-.24.611v2.393a2.19,2.19,0,0,1,.6-.76,3.087,3.087,0,0,1,.969-.583A3.357,3.357,0,0,1,10.4,26.31a3.289,3.289,0,0,1,1.537.37c.079.043.057.026.059.363A3.482,3.482,0,0,0,9.5,27.008a3.082,3.082,0,0,0-.968.583,2.71,2.71,0,0,0-.653.864,2.835,2.835,0,0,0-.24.61V30Zm.483-1.459v0Zm0-3.592v0Zm0-3.592v0Zm0-3.592v0Zm0-3.592v0Zm0-3.592v0Zm0-3.592v0Zm0-3.592v0ZM4.355,29.9v-.84a2.844,2.844,0,0,0-.239-.608,2.707,2.707,0,0,0-.653-.864A3.085,3.085,0,0,0,2.5,27a3.346,3.346,0,0,0-1.187-.2A3.335,3.335,0,0,0,0,27.044c0-.337-.019-.322.06-.364a3.285,3.285,0,0,1,1.54-.37,3.347,3.347,0,0,1,1.186.214,3.071,3.071,0,0,1,.969.582,2.191,2.191,0,0,1,.6.76v-2.4a2.833,2.833,0,0,0-.239-.607A2.7,2.7,0,0,0,3.463,24a3.085,3.085,0,0,0-.968-.583A3.348,3.348,0,0,0,1.308,23.2,3.343,3.343,0,0,0,0,23.452c0-.337-.019-.321.06-.364a3.285,3.285,0,0,1,1.536-.37,3.345,3.345,0,0,1,1.186.214,3.071,3.071,0,0,1,.969.582,2.189,2.189,0,0,1,.6.76v-2.4a2.847,2.847,0,0,0-.239-.607,2.708,2.708,0,0,0-.653-.864,3.092,3.092,0,0,0-.968-.583,3.348,3.348,0,0,0-1.186-.213A3.334,3.334,0,0,0,0,19.86c0-.337-.019-.321.06-.364a3.288,3.288,0,0,1,1.536-.37,3.355,3.355,0,0,1,1.186.213,3.086,3.086,0,0,1,.969.582,2.192,2.192,0,0,1,.6.76V18.287a2.822,2.822,0,0,0-.239-.608,2.7,2.7,0,0,0-.653-.864,3.087,3.087,0,0,0-.968-.583,3.344,3.344,0,0,0-1.186-.213A3.342,3.342,0,0,0,0,16.268c0-.337-.019-.321.06-.364a3.287,3.287,0,0,1,1.536-.37,3.357,3.357,0,0,1,1.186.214,3.087,3.087,0,0,1,.969.582,2.187,2.187,0,0,1,.6.76v-2.4a2.836,2.836,0,0,0-.239-.608,2.711,2.711,0,0,0-.653-.864,3.1,3.1,0,0,0-.968-.582,3.346,3.346,0,0,0-1.186-.214A3.351,3.351,0,0,0,0,12.675c0-.337-.019-.321.06-.364a3.287,3.287,0,0,1,1.54-.37,3.357,3.357,0,0,1,1.186.214,3.081,3.081,0,0,1,.969.583,2.182,2.182,0,0,1,.6.76V11.1a2.826,2.826,0,0,0-.239-.608,2.707,2.707,0,0,0-.653-.864A3.089,3.089,0,0,0,2.5,9.045a3.356,3.356,0,0,0-1.186-.213A3.335,3.335,0,0,0,0,9.084c0-.338-.019-.322.06-.364A3.277,3.277,0,0,1,1.6,8.35a3.347,3.347,0,0,1,1.186.214,3.067,3.067,0,0,1,.969.582,2.178,2.178,0,0,1,.6.76V7.51a2.832,2.832,0,0,0-.24-.61,2.7,2.7,0,0,0-.653-.864,3.087,3.087,0,0,0-.968-.583A3.358,3.358,0,0,0,1.308,5.24,3.343,3.343,0,0,0,0,5.491c0-.337-.019-.321.06-.363A3.28,3.28,0,0,1,1.6,4.757a3.357,3.357,0,0,1,1.186.214,3.074,3.074,0,0,1,.969.583,2.185,2.185,0,0,1,.6.759V3.921a2.794,2.794,0,0,0-.239-.61,2.708,2.708,0,0,0-.653-.864,3.083,3.083,0,0,0-.969-.583A3.359,3.359,0,0,0,1.308,1.65,3.335,3.335,0,0,0,0,1.9c0-.338-.02-.322.06-.364A3.274,3.274,0,0,1,1.6,1.165a3.345,3.345,0,0,1,1.186.214,3.064,3.064,0,0,1,.968.582,2.178,2.178,0,0,1,.6.76V0h.484V29.9Zm0-1.37v-.578c0,.556,0,.564,0,.581Zm0-3.592V24.36c0,.556,0,.564,0,.581Zm0-3.592V20.77c0,.554,0,.562,0,.579Zm0-3.592v-.578c0,.556,0,.564,0,.581Zm0-3.592v-.578c0,.556,0,.564,0,.58Zm0-3.592V9.994c0,.554,0,.561,0,.578Zm0-3.592V6.4c0,.556,0,.563,0,.58Z" transform="translate(0.002 0.001)" fill="rgba(255,255,255,0.5)"/></g></g></svg>